<svg viewBox="0 0 648 69" fill="none" xmlns="http://www.w3.org/2000/svg">
<path fill-rule="evenodd" clip-rule="evenodd" d="M131.474 34.5455C127.045 30.9447 121.426 28.7903 115.313 28.7903C105.131 28.7903 96.3149 34.7681 92.1027 43.447C86.2672 39.645 78.8766 37.3722 70.8393 37.3722C58.4214 37.3722 47.5427 42.7984 41.566 50.9044C37.4677 49.136 32.6886 48.1227 27.5907 48.1227C12.3632 48.1227 0 56.8609 0 68.0138C7.96594 68.0138 323.999 68.0138 323.999 68.0138C323.999 68.0138 634.352 68.0137 648 68.0138C648 56.8609 635.639 47.8031 620.407 47.8031C615.856 47.8031 611.559 48.6128 607.777 50.045C601.68 42.4172 591.136 37.3722 579.164 37.3722C571.125 37.3722 563.734 39.645 557.901 43.447C553.686 34.7681 544.868 28.7903 534.691 28.7903C528.033 28.7903 521.966 31.3424 517.385 35.5304C512.057 24.4532 498.255 16.5839 482.144 16.6549C477.091 16.6762 472.276 17.4764 467.893 18.9111C451.946 3.94188 426.359 -2.49749 404.039 4.39644C401.434 5.20136 398.964 6.16017 396.632 7.25866C393.921 5.41207 390.647 4.01765 386.933 3.25298C374.779 0.745877 362.12 5.85476 357.038 14.851C352.223 8.38317 343.992 3.26718 333.6 1.12703C316.032 -2.49512 298.079 3.57494 290.293 14.9575C282.401 7.85287 269.933 3.28848 255.944 3.34056C241.361 3.39501 228.49 8.45657 220.774 16.1436C215.521 13.6602 209.676 11.6999 203.347 10.3955C173.352 4.21177 142.842 14.8865 131.474 34.5455Z" fill="white"/>
</svg>
