<svg  viewBox="0 0 94 94" fill="none" xmlns="http://www.w3.org/2000/svg">
<g clip-path="url(#clip0_8_51)">
<path d="M69.9419 28.7817L67.699 29.687L41.0766 19.4059C41.1531 18.5437 41.0237 17.6757 40.6991 16.8734C39.5513 14.0344 36.3194 12.664 33.4805 13.8119C30.6414 14.9598 29.271 18.1917 30.4189 21.0306C30.7414 21.8308 31.2497 22.5428 31.9017 23.1077L19.8749 48.9889L17.632 49.8941C13.77 51.4529 11.8363 55.931 13.3951 59.793L20.6732 77.8257C22.2322 81.6883 26.7022 83.4945 30.5642 81.9358L82.874 60.8232C83.7884 60.4562 84.621 59.9116 85.3237 59.221C86.0265 58.5304 86.5854 57.7074 86.9683 56.7995C87.3512 55.8917 87.5504 54.9169 87.5545 53.9317C87.5585 52.9464 87.3674 51.9701 86.992 51.0591L79.7139 33.0263C78.1551 29.1643 73.8039 27.223 69.9419 28.7817ZM22.9265 47.757L33.8678 24.2183C36.4095 25.0495 39.181 23.9288 40.4302 21.5643L64.6472 30.9184L22.9265 47.757Z" fill="#F14543"/>
<path d="M45.1756 58.881L47.3518 58.0027L44.6516 54.4476L45.1756 58.881Z" fill="#F14543"/>
<path d="M38.6774 63.2316C38.9519 63.9116 38.6996 64.4088 37.9207 64.7232L34.026 66.2952C33.247 66.6096 32.7228 66.433 32.4533 65.7653C32.1689 65.0606 32.4099 64.5535 33.1765 64.2441L37.0898 62.6646C37.8687 62.3502 38.3979 62.5392 38.6774 63.2316ZM49.3326 59.6426C49.647 60.4216 49.8004 61.1577 49.7926 61.851C49.781 62.8909 49.4843 63.8302 48.9026 64.6689C48.3159 65.4952 47.5342 66.1055 46.5574 66.4998C45.8898 66.7693 45.1697 66.9089 44.3972 66.9187C43.553 66.9288 42.8382 66.7788 42.2529 66.4686C41.8685 66.2643 41.6114 66.0014 41.4817 65.68C41.3719 65.4079 41.3611 65.1319 41.4494 64.8519C41.5376 64.5718 41.7178 64.3769 41.9898 64.2671C42.2 64.1822 42.7015 64.2314 43.4944 64.4147C44.2823 64.5855 44.9853 64.5462 45.6035 64.2967C46.3206 64.0072 46.7884 63.5452 47.0068 62.9107C47.2325 62.2588 47.2007 61.5743 46.9112 60.8572C46.2725 59.2746 45.2359 58.7727 43.8017 59.3516C43.5297 59.4614 43.1813 59.7027 42.7566 60.0754C42.3269 60.4357 41.9761 60.6708 41.7041 60.7806C41.1353 61.0102 40.7037 60.7602 40.4093 60.0307C40.3793 59.9565 40.3305 59.7821 40.2628 59.5075C40.1949 59.1611 40.1509 58.9631 40.131 58.9137C39.9632 58.32 39.6173 56.9642 39.0933 54.8465C38.9654 54.3517 38.9618 53.9865 39.0824 53.7509C39.203 53.5153 39.4982 53.3027 39.9681 53.113L44.1781 51.4138C45.0683 51.0545 45.6606 51.2396 45.9551 51.9691C46.2395 52.6738 45.949 53.2009 45.0835 53.5502L41.5782 54.965L42.2778 57.7668C42.7222 57.3718 43.1855 57.0769 43.6677 56.8823C44.8423 56.4082 45.9715 56.4629 47.0553 57.0463C48.0945 57.5902 48.8536 58.4557 49.3326 59.6426ZM59.8377 52.9655C60.6112 54.8819 60.9111 56.5869 60.7375 58.0804C60.5206 59.9653 59.5342 61.2621 57.7785 61.9707C56.0228 62.6794 54.4127 62.4306 52.9481 61.2244C51.7864 60.2698 50.8187 58.8343 50.0452 56.9179C49.2717 55.0014 48.9681 53.3051 49.1343 51.8289C49.3513 49.9441 50.3438 48.6448 52.1119 47.9312C53.88 47.2175 55.4963 47.4638 56.9608 48.67C58.1052 49.6172 59.0642 51.049 59.8377 52.9655ZM57.4192 53.92C56.9351 52.7207 56.3924 51.7679 55.791 51.0617C54.8766 50.0073 53.9433 49.6722 52.9913 50.0565C52.0145 50.4507 51.5666 51.3361 51.6477 52.7124C51.6927 53.6433 51.9597 54.7145 52.4488 55.9262C53.7662 59.1903 55.2596 60.4856 56.9287 59.8119C57.8931 59.4226 58.3298 58.5274 58.2388 57.1263C58.1864 56.2129 57.9132 55.1441 57.4192 53.92ZM65.1141 46.4791C65.4584 47.3322 65.4809 48.1715 65.1814 48.9969C64.8892 49.805 64.3166 50.3812 63.4635 50.7256C62.6227 51.0649 61.8044 51.0501 61.0084 50.6812C60.2199 50.295 59.6534 49.6753 59.3091 48.8221C58.9548 47.9443 58.9274 47.0926 59.2269 46.2672C59.5214 45.4294 60.1014 44.8359 60.9669 44.4865C61.8323 44.1372 62.6644 44.168 63.4629 44.579C64.2094 44.9679 64.7598 45.6013 65.1141 46.4791ZM68.5768 42.1267C68.6516 42.3122 68.6772 42.5894 68.6536 42.9584L68.109 50.5328C68.093 50.9563 68.0566 51.5964 67.9999 52.4533C67.9164 53.4934 67.8 55.0573 67.6505 57.145C67.6078 57.7518 67.3763 58.14 66.9559 58.3097C66.721 58.4045 66.4908 58.404 66.2651 58.3081C66.0445 58.2246 65.8868 58.0654 65.792 57.8305C65.7171 57.645 65.6951 57.3232 65.7258 56.8651L66.7075 42.9459C66.7526 42.3095 66.9667 41.9139 67.35 41.7592C67.9682 41.5097 68.3771 41.6322 68.5768 42.1267ZM75.101 51.2909C75.4503 52.1564 75.4727 52.9957 75.1683 53.8088C74.8638 54.6218 74.285 55.2005 73.4318 55.5449C72.6034 55.8792 71.7888 55.8558 70.9878 55.4745C70.1993 55.0882 69.6353 54.4747 69.296 53.634C68.9367 52.7437 68.9006 51.8884 69.1877 51.068C69.4748 50.2475 70.0573 49.6602 70.9352 49.3058C71.8254 48.9465 72.6524 48.965 73.4163 49.3612C74.1751 49.7451 74.7367 50.3884 75.101 51.2909ZM62.8497 49.2048C63.27 49.0351 63.539 48.7396 63.6565 48.3183C63.752 47.9491 63.7098 47.542 63.5302 47.0969C63.3555 46.6641 63.1032 46.3418 62.7732 46.1299C62.3986 45.8785 62.0011 45.8376 61.5807 46.0073C61.1479 46.182 60.8815 46.4836 60.7813 46.9123C60.6859 47.2815 60.7305 47.6949 60.9151 48.1523C61.0798 48.5603 61.3445 48.8777 61.7092 49.1043C62.0738 49.331 62.454 49.3645 62.8497 49.2048ZM73.4835 51.8791C73.3089 51.4463 73.0566 51.124 72.7266 50.9121C72.3496 50.6904 71.9509 50.6644 71.5305 50.8341C71.1101 51.0038 70.8523 51.3091 70.7571 51.7502C70.6667 52.1317 70.7088 52.5389 70.8835 52.9716C71.0482 53.3797 71.3017 53.6871 71.644 53.894C72.026 54.1281 72.4149 54.1652 72.8105 54.0055C73.2309 53.8359 73.4974 53.5342 73.6099 53.1006C73.7053 52.7313 73.6632 52.3242 73.4835 51.8791Z" fill="white"/>
</g>
<defs>
<clipPath id="clip0_8_51">
<rect width="71.5168" height="71.5168" fill="white" transform="translate(0.25 27.2239) rotate(-21.9793)"/>
</clipPath>
</defs>
</svg>
