<svg width="39" height="40" viewBox="0 0 39 40" fill="none" xmlns="http://www.w3.org/2000/svg">
<g filter="url(#filter0_d_38_178)">
<path d="M26.5062 27.1184C26.8272 27.4394 26.8272 27.9209 26.5062 28.2418C26.3458 28.4023 26.105 28.4826 25.9445 28.4826C25.784 28.4826 25.5433 28.4023 25.3828 28.2418L18.642 21.5011L11.9013 28.2418C11.7408 28.4023 11.5001 28.4826 11.3396 28.4826C11.1791 28.4826 10.9383 28.4023 10.7779 28.2418C10.4569 27.9209 10.4569 27.4394 10.7779 27.1184L17.5186 20.3776L10.7779 13.6369C10.4569 13.3159 10.4569 12.8344 10.7779 12.5134C11.0988 12.1925 11.5803 12.1925 11.9013 12.5134L18.642 19.2542L25.3828 12.5134C25.7038 12.1925 26.1853 12.1925 26.5062 12.5134C26.8272 12.8344 26.8272 13.3159 26.5062 13.6369L19.7655 20.3776L26.5062 27.1184Z" fill="white"/>
</g>
<defs>
<filter id="filter0_d_38_178" x="-5.59249" y="-2.97415" width="50.5556" height="50.5556" filterUnits="userSpaceOnUse" color-interpolation-filters="sRGB">
<feFlood flood-opacity="0" result="BackgroundImageFix"/>
<feColorMatrix in="SourceAlpha" type="matrix" values="0 0 0 0 0 0 0 0 0 0 0 0 0 0 0 0 0 0 127 0" result="hardAlpha"/>
<feOffset dy="2.40741"/>
<feGaussianBlur stdDeviation="3.00926"/>
<feComposite in2="hardAlpha" operator="out"/>
<feColorMatrix type="matrix" values="0 0 0 0 0 0 0 0 0 0 0 0 0 0 0 0 0 0 0.5 0"/>
<feBlend mode="normal" in2="BackgroundImageFix" result="effect1_dropShadow_38_178"/>
<feBlend mode="normal" in="SourceGraphic" in2="effect1_dropShadow_38_178" result="shape"/>
</filter>
</defs>
</svg>
